<svg id="Capa_1" data-name="Capa 1" xmlns="http://www.w3.org/2000/svg" xmlns:xlink="http://www.w3.org/1999/xlink" viewBox="0 0 75 58.37"><defs><style>.cls-1{fill:url(#Degradado_sin_nombre_114);}.cls-2,.cls-4{fill:none;stroke:#1b75bb;}.cls-2,.cls-3{stroke-miterlimit:10;}.cls-2,.cls-3,.cls-4{stroke-width:1.5px;}.cls-3{fill:#fff;stroke:#3ac0f1;}.cls-4{stroke-linecap:round;stroke-linejoin:round;}</style><linearGradient id="Degradado_sin_nombre_114" x1="27.45" y1="51.91" x2="27.45" y2="1.91" gradientUnits="userSpaceOnUse"><stop offset="0" stop-color="#fff"/><stop offset="0.62" stop-color="#a5f0ff"/><stop offset="1" stop-color="#7ce2f3"/></linearGradient></defs><circle class="cls-1" cx="27.45" cy="26.91" r="25"/><path class="cls-2" d="M33.75,25.81H42a7.93,7.93,0,0,1,7.93,7.93V45.46a11,11,0,0,1-11,11H36.83a11,11,0,0,1-11-11V33.74a7.93,7.93,0,0,1,7.93-7.93Z"/><circle class="cls-3" cx="37.87" cy="47.71" r="5.47"/><path class="cls-3" d="M30.64,32.38H45.1a1.53,1.53,0,0,1,1.53,1.53v1.39A4.75,4.75,0,0,1,41.88,40h-8a4.75,4.75,0,0,1-4.75-4.75V33.91A1.53,1.53,0,0,1,30.64,32.38Z"/><path class="cls-4" d="M37.87,5h0A2.31,2.31,0,0,0,35.56,7.2l-1,18.61h6.57l-1-18.61A2.3,2.3,0,0,0,37.87,5Z"/><line class="cls-4" x1="34.58" y1="11.58" x2="28.02" y2="11.58"/><line class="cls-4" x1="41.15" y1="11.58" x2="46.63" y2="11.58"/><path class="cls-4" d="M25.83,35.16c-25.34-1.95-22.15-10-22.15-10H72.42s3.22,8.12-22.51,10"/><circle class="cls-3" cx="13.78" cy="33.47" r="5.47"/><circle class="cls-3" cx="61.95" cy="33.47" r="5.47"/></svg>