<svg id="Capa_1" data-name="Capa 1" xmlns="http://www.w3.org/2000/svg" xmlns:xlink="http://www.w3.org/1999/xlink" viewBox="0 0 69 71.64"><defs><style>.cls-1,.cls-3{fill:none;}.cls-1,.cls-4{stroke:#3ac0f1;}.cls-1,.cls-3,.cls-4,.cls-5{stroke-linecap:round;stroke-linejoin:round;}.cls-2{fill:url(#Degradado_sin_nombre_114);}.cls-3,.cls-5{stroke:#1b75bb;}.cls-4,.cls-5{fill:#fff;}.cls-5{stroke-width:1.5px;}</style><linearGradient id="Degradado_sin_nombre_114" x1="27.43" y1="60.94" x2="27.43" y2="10.94" gradientUnits="userSpaceOnUse"><stop offset="0" stop-color="#fff"/><stop offset="0.62" stop-color="#a5f0ff"/><stop offset="1" stop-color="#7ce2f3"/></linearGradient></defs><line class="cls-1" x1="27.99" y1="59.97" x2="27.99" y2="69.11"/><line class="cls-1" x1="35.4" y1="59.97" x2="35.4" y2="69.11"/><line class="cls-1" x1="42.81" y1="59.97" x2="42.81" y2="69.11"/><circle class="cls-2" cx="27.43" cy="35.94" r="25"/><rect class="cls-3" x="20.18" y="25.85" width="30.44" height="42.97"/><rect class="cls-3" x="10.78" y="37.04" width="9.4" height="19.7"/><rect class="cls-3" x="50.62" y="37.04" width="9.4" height="19.7"/><rect class="cls-3" x="23.36" y="20.21" width="24.54" height="5.64"/><rect class="cls-3" x="26.55" y="55.59" width="17.61" height="4.38"/><rect class="cls-3" x="12.36" y="56.74" width="7.82" height="12.09"/><rect class="cls-3" x="50.62" y="56.74" width="7.56" height="12.09"/><rect class="cls-4" x="33.18" y="47.34" width="4.68" height="4.68"/><rect class="cls-4" x="41.82" y="47.34" width="4.68" height="4.68"/><rect class="cls-4" x="24.96" y="47.34" width="4.68" height="4.68"/><rect class="cls-4" x="33.18" y="38.7" width="4.68" height="4.68"/><rect class="cls-4" x="41.82" y="38.7" width="4.68" height="4.68"/><rect class="cls-4" x="24.96" y="38.7" width="4.68" height="4.68"/><rect class="cls-4" x="13.93" y="40.65" width="4.68" height="4.68"/><rect class="cls-4" x="13.93" y="47.99" width="4.68" height="4.68"/><rect class="cls-4" x="52.06" y="40.65" width="4.68" height="4.68"/><rect class="cls-4" x="52.06" y="47.99" width="4.68" height="4.68"/><rect class="cls-4" x="33.18" y="30.07" width="4.68" height="4.68"/><rect class="cls-4" x="41.82" y="30.07" width="4.68" height="4.68"/><rect class="cls-4" x="24.96" y="30.07" width="4.68" height="4.68"/><line class="cls-3" x1="10.01" y1="69.11" x2="61.17" y2="69.11"/><path class="cls-5" d="M14.82,18.26,7.2,11.35,12.09,9.6l12.84,5,30-10.76S65.13,2.78,66.36,6.2s-3.33,5-3.33,5l-14,5L38.29,33.6l-5.56,2,4.69-15.17-8.53,3.06s-9.5,2.17-17.19.41l-1.44-4Z"/><polyline class="cls-5" points="28.57 9.15 21.77 4.53 27.34 2.53 42.63 8.28"/></svg>