<svg id="Capa_1" data-name="Capa 1" xmlns="http://www.w3.org/2000/svg" xmlns:xlink="http://www.w3.org/1999/xlink" viewBox="0 0 70 63.51"><defs><style>.cls-1,.cls-3{fill:none;}.cls-1,.cls-4{stroke:#3ac0f1;}.cls-1,.cls-3,.cls-4{stroke-linecap:round;stroke-linejoin:round;stroke-width:1.5px;}.cls-2{fill:url(#Degradado_sin_nombre_114);}.cls-3{stroke:#1b75bb;}.cls-4{fill:#fff;}</style><linearGradient id="Degradado_sin_nombre_114" x1="27.35" y1="52.37" x2="27.35" y2="2.37" gradientUnits="userSpaceOnUse"><stop offset="0" stop-color="#fff"/><stop offset="0.62" stop-color="#a5f0ff"/><stop offset="1" stop-color="#7ce2f3"/></linearGradient></defs><line class="cls-1" x1="28.84" y1="50.31" x2="28.84" y2="61.38"/><line class="cls-1" x1="37.82" y1="50.31" x2="37.82" y2="61.38"/><line class="cls-1" x1="46.79" y1="50.31" x2="46.79" y2="61.38"/><circle class="cls-2" cx="27.35" cy="27.37" r="25"/><rect class="cls-3" x="19.37" y="8.96" width="36.89" height="52.08"/><rect class="cls-3" x="7.98" y="22.52" width="11.39" height="23.87"/><rect class="cls-3" x="56.26" y="22.52" width="11.39" height="23.87"/><rect class="cls-3" x="23.23" y="2.13" width="29.73" height="6.83"/><rect class="cls-3" x="27.09" y="45" width="21.34" height="5.3"/><rect class="cls-3" x="9.9" y="46.39" width="9.47" height="14.65"/><rect class="cls-3" x="56.26" y="46.39" width="9.16" height="14.65"/><rect class="cls-4" x="35.13" y="35" width="5.67" height="5.67"/><rect class="cls-4" x="45.59" y="35" width="5.67" height="5.67"/><rect class="cls-4" x="25.16" y="35" width="5.67" height="5.67"/><rect class="cls-4" x="35.13" y="24.53" width="5.67" height="5.67"/><rect class="cls-4" x="45.59" y="24.53" width="5.67" height="5.67"/><rect class="cls-4" x="25.16" y="24.53" width="5.67" height="5.67"/><rect class="cls-4" x="11.81" y="26.9" width="5.67" height="5.67"/><rect class="cls-4" x="11.81" y="35.79" width="5.67" height="5.67"/><rect class="cls-4" x="58.01" y="26.9" width="5.67" height="5.67"/><rect class="cls-4" x="58.01" y="35.79" width="5.67" height="5.67"/><rect class="cls-4" x="35.13" y="14.07" width="5.67" height="5.67"/><rect class="cls-4" x="45.59" y="14.07" width="5.67" height="5.67"/><rect class="cls-4" x="25.16" y="14.07" width="5.67" height="5.67"/><line class="cls-3" x1="7.05" y1="61.38" x2="69.05" y2="61.38"/></svg>