<svg id="Capa_1" data-name="Capa 1" xmlns="http://www.w3.org/2000/svg" xmlns:xlink="http://www.w3.org/1999/xlink" viewBox="0 0 65 63.82"><defs><style>.cls-1{fill:url(#Degradado_sin_nombre_114);}.cls-2,.cls-3{fill:none;}.cls-2{stroke:#1b75bb;stroke-linecap:round;stroke-linejoin:round;}.cls-2,.cls-3,.cls-4{stroke-width:1.5px;}.cls-3,.cls-4{stroke:#3ac0f1;stroke-miterlimit:10;}.cls-4{fill:#fff;}</style><linearGradient id="Degradado_sin_nombre_114" x1="27.5" y1="52.45" x2="27.5" y2="2.45" gradientUnits="userSpaceOnUse"><stop offset="0" stop-color="#fff"/><stop offset="0.62" stop-color="#a5f0ff"/><stop offset="1" stop-color="#7ce2f3"/></linearGradient></defs><circle class="cls-1" cx="27.5" cy="27.45" r="25"/><rect class="cls-2" x="15.04" y="10.83" width="40.1" height="43.41" rx="3.6"/><path class="cls-2" d="M10.12,20.93H15a0,0,0,0,1,0,0V34a0,0,0,0,1,0,0H10.12a2.44,2.44,0,0,1-2.44-2.44V23.37A2.44,2.44,0,0,1,10.12,20.93Z"/><path class="cls-2" d="M57.58,20.93H62.5a0,0,0,0,1,0,0V34a0,0,0,0,1,0,0H57.58a2.44,2.44,0,0,1-2.44-2.44V23.37A2.44,2.44,0,0,1,57.58,20.93Z" transform="translate(117.65 54.9) rotate(180)"/><path class="cls-2" d="M31.23,49.45h7.43a1.68,1.68,0,0,1,1.68,1.68v3.11a0,0,0,0,1,0,0H29.55a0,0,0,0,1,0,0V51.14A1.68,1.68,0,0,1,31.23,49.45Z"/><rect class="cls-3" x="20.02" y="44.51" width="7.47" height="3.78"/><rect class="cls-3" x="42.21" y="44.51" width="7.47" height="3.78"/><line class="cls-3" x1="31.23" y1="45.65" x2="38.33" y2="45.65"/><line class="cls-2" x1="6.9" y1="61.37" x2="63.13" y2="61.37"/><line class="cls-2" x1="17.32" y1="53.99" x2="17.32" y2="61.17"/><line class="cls-2" x1="25.72" y1="54.56" x2="25.72" y2="61.17"/><line class="cls-2" x1="44.43" y1="54.56" x2="44.43" y2="61.17"/><line class="cls-2" x1="52.84" y1="54.56" x2="52.84" y2="61.17"/><path class="cls-2" d="M29.41,15.1H40.47a2,2,0,0,1,2,2v2.82a0,0,0,0,1,0,0H27.39a0,0,0,0,1,0,0V17.12A2,2,0,0,1,29.41,15.1Z"/><path class="cls-2" d="M28.55,6.21H41.32a2,2,0,0,1,2,2v2.29a0,0,0,0,1,0,0H26.53a0,0,0,0,1,0,0V8.23A2,2,0,0,1,28.55,6.21Z"/><rect class="cls-4" x="19.35" y="19.94" width="31.14" height="19" rx="1.79"/></svg>