<svg id="Capa_1" data-name="Capa 1" xmlns="http://www.w3.org/2000/svg" xmlns:xlink="http://www.w3.org/1999/xlink" viewBox="0 0 56 68.37"><defs><style>.cls-1,.cls-5,.cls-6{fill:none;}.cls-2{fill:url(#Degradado_sin_nombre_114);}.cls-3{clip-path:url(#clip-path);}.cls-4{fill:#fff;}.cls-4,.cls-6{stroke:#3ac0f1;stroke-miterlimit:10;}.cls-4,.cls-5,.cls-6{stroke-width:1.5px;}.cls-5{stroke:#1b75bb;stroke-linecap:round;stroke-linejoin:round;}</style><linearGradient id="Degradado_sin_nombre_114" x1="27.42" y1="59.77" x2="27.42" y2="9.77" gradientUnits="userSpaceOnUse"><stop offset="0" stop-color="#fff"/><stop offset="0.62" stop-color="#a5f0ff"/><stop offset="1" stop-color="#7ce2f3"/></linearGradient><clipPath id="clip-path"><rect class="cls-1" x="22.2" y="60.42" width="27.84" height="5"/></clipPath></defs><circle class="cls-2" cx="27.42" cy="34.77" r="25"/><g class="cls-3"><circle class="cls-4" cx="25.69" cy="61.68" r="2.41"/><circle class="cls-4" cx="45.95" cy="61.68" r="2.41"/></g><path class="cls-5" d="M48.14,60.44H22.64A5.44,5.44,0,0,1,17.2,55V19.72A4.82,4.82,0,0,1,22,14.89h9.09l1.6,2.72H38.5l2.07-2.72h8.19a4.82,4.82,0,0,1,4.82,4.83V55A5.45,5.45,0,0,1,48.14,60.44Z"/><rect class="cls-6" x="23.09" y="23.6" width="5.18" height="30.23" rx="2.59"/><rect class="cls-6" x="33.32" y="23.6" width="5.18" height="30.23" rx="2.59"/><rect class="cls-6" x="43.54" y="23.6" width="5.18" height="30.23" rx="2.59"/><polyline class="cls-5" points="27.63 14.89 27.63 2.96 43.87 2.96 43.87 14.89"/><line class="cls-5" x1="27.63" y1="7.2" x2="43.87" y2="7.2"/></svg>