<svg id="Capa_1" data-name="Capa 1" xmlns="http://www.w3.org/2000/svg" xmlns:xlink="http://www.w3.org/1999/xlink" viewBox="0 0 69 58.5"><defs><style>.cls-1{fill:url(#Degradado_sin_nombre_114);}.cls-2,.cls-3{fill:none;stroke-width:1.5px;}.cls-2{stroke:#1b75bb;stroke-linecap:round;stroke-linejoin:round;}.cls-3{stroke:#3ac0f1;stroke-miterlimit:10;}</style><linearGradient id="Degradado_sin_nombre_114" x1="27.17" y1="51.84" x2="27.17" y2="1.84" gradientUnits="userSpaceOnUse"><stop offset="0" stop-color="#fff"/><stop offset="0.62" stop-color="#a5f0ff"/><stop offset="1" stop-color="#7ce2f3"/></linearGradient></defs><circle class="cls-1" cx="27.17" cy="26.84" r="25"/><polygon class="cls-2" points="14.98 36.25 14.98 48.81 62.56 48.81 62.56 36.25 57.66 29.68 52.56 14.57 25.87 14.57 19.79 29.58 14.98 36.25"/><line class="cls-2" x1="19.79" y1="29.58" x2="57.66" y2="29.58"/><path class="cls-3" d="M47.88,40.44a16.79,16.79,0,0,1,9.55-5.5,1.49,1.49,0,0,1,1.71,1.21l.47,2.52a1.51,1.51,0,0,1-1.48,1.77Z"/><path class="cls-3" d="M29.66,40.44a16.83,16.83,0,0,0-9.55-5.5,1.5,1.5,0,0,0-1.72,1.21l-.46,2.52a1.5,1.5,0,0,0,1.47,1.77Z"/><polygon class="cls-2" points="50.65 46.16 27.06 46.16 22.67 42.76 55.03 42.76 50.65 46.16"/><line class="cls-3" x1="30.08" y1="37.12" x2="47.08" y2="37.12"/><path class="cls-2" d="M16.44,29.58h3.35l1.63-4H14.26V27.4A2.19,2.19,0,0,0,16.44,29.58Z"/><path class="cls-2" d="M61,29.58H57.66l-1.4-4h6.92V27.4A2.18,2.18,0,0,1,61,29.58Z"/><path class="cls-2" d="M15,48.81h7.69a0,0,0,0,1,0,0v5.24a1,1,0,0,1-1,1H16a1,1,0,0,1-1-1V48.81A0,0,0,0,1,15,48.81Z"/><path class="cls-2" d="M54.87,48.81h7.69a0,0,0,0,1,0,0v5.24a1,1,0,0,1-1,1H55.87a1,1,0,0,1-1-1V48.81A0,0,0,0,1,54.87,48.81Z"/><line class="cls-2" x1="10.61" y1="56.66" x2="66.83" y2="56.66"/></svg>