<svg id="Capa_1" data-name="Capa 1" xmlns="http://www.w3.org/2000/svg" xmlns:xlink="http://www.w3.org/1999/xlink" viewBox="0 0 63 62.98"><defs><style>.cls-1,.cls-4{fill:none;}.cls-1{stroke:#3ac0f1;stroke-miterlimit:10;}.cls-1,.cls-3,.cls-4{stroke-width:1.5px;}.cls-2{fill:url(#Degradado_sin_nombre_114);}.cls-3{fill:#fff;}.cls-3,.cls-4{stroke:#1b75bb;stroke-linecap:round;stroke-linejoin:round;}</style><linearGradient id="Degradado_sin_nombre_114" x1="27.25" y1="55.33" x2="27.25" y2="5.33" gradientUnits="userSpaceOnUse"><stop offset="0" stop-color="#fff"/><stop offset="0.62" stop-color="#a5f0ff"/><stop offset="1" stop-color="#7ce2f3"/></linearGradient></defs><path class="cls-1" d="M58.42,2.25H33.62a2.33,2.33,0,0,0-2.33,2.33V7.77H53.46a2.32,2.32,0,0,1,2.33,2.32V55.21h2.63a2.33,2.33,0,0,0,2.33-2.33V4.58A2.33,2.33,0,0,0,58.42,2.25Z"/><circle class="cls-2" cx="27.25" cy="30.33" r="25"/><path class="cls-1" d="M53.46,7.77H28.65a2.32,2.32,0,0,0-2.32,2.32V58.4a2.32,2.32,0,0,0,2.32,2.32h7.26a5.15,5.15,0,0,1,10.29,0h7.26a2.32,2.32,0,0,0,2.33-2.32V10.09A2.32,2.32,0,0,0,53.46,7.77Z"/><path class="cls-3" d="M20.07,13.76H46.92a2.5,2.5,0,0,1,2.5,2.5V48.8a2.5,2.5,0,0,1-2.5,2.5H17.57a0,0,0,0,1,0,0v-35A2.5,2.5,0,0,1,20.07,13.76Z"/><path class="cls-4" d="M24.84,57H19.37a1.79,1.79,0,0,1-1.8-1.8V51.3h8.27"/><line class="cls-4" x1="25.84" y1="44.15" x2="40.9" y2="44.15"/><line class="cls-4" x1="25.84" y1="39.19" x2="40.9" y2="39.19"/><circle class="cls-4" cx="33.5" cy="27.37" r="6.99"/></svg>