<svg id="Capa_1" data-name="Capa 1" xmlns="http://www.w3.org/2000/svg" xmlns:xlink="http://www.w3.org/1999/xlink" viewBox="0 0 68 59.18"><defs><style>.cls-1{fill:url(#Degradado_sin_nombre_114);}.cls-2,.cls-3{fill:none;stroke-linecap:round;stroke-linejoin:round;stroke-width:1.5px;}.cls-2{stroke:#1b75bb;}.cls-3{stroke:#3ac0f1;}</style><linearGradient id="Degradado_sin_nombre_114" x1="27.14" y1="55.95" x2="27.14" y2="5.95" gradientUnits="userSpaceOnUse"><stop offset="0" stop-color="#fff"/><stop offset="0.62" stop-color="#a5f0ff"/><stop offset="1" stop-color="#7ce2f3"/></linearGradient></defs><circle class="cls-1" cx="27.14" cy="30.95" r="25"/><circle class="cls-2" cx="26.08" cy="42.48" r="3.61"/><circle class="cls-2" cx="51.28" cy="42.48" r="3.61"/><line class="cls-3" x1="38.56" y1="53.31" x2="38.56" y2="32.09"/><polyline class="cls-3" points="13.65 37.78 38.56 31.51 63.48 37.78"/><polyline class="cls-2" points="23.05 56.09 11.26 33.12 38.63 26.72 65.86 33.12 54.14 56.09"/><path class="cls-3" d="M10.58,56.53s2.15,2,5.19-.44a6,6,0,0,1,7.11-.34c.82.63,2.45,2.12,4.3,1s3.4-2.13,5.7-2,3,2.53,5.33,2.58,3.86-2.62,6.6-2.59,4,2.77,6.22,2.59,3.18-2.41,6.37-2.18,3.06,3.4,8.46,1.55"/><rect class="cls-2" x="30.81" y="1.87" width="15.22" height="5.22" rx="2.61"/><line class="cls-2" x1="33.42" y1="7.09" x2="33.42" y2="12.87"/><line class="cls-2" x1="43.92" y1="7.09" x2="43.92" y2="12.87"/><polyline class="cls-3" points="23.05 22.52 27.36 12.87 49.92 12.87 54.14 22.82"/><polyline class="cls-2" points="18.7 31.38 18.7 23.64 38.56 18.53 58.36 23.98 58.36 31.36"/></svg>