<svg id="Capa_1" data-name="Capa 1" xmlns="http://www.w3.org/2000/svg" xmlns:xlink="http://www.w3.org/1999/xlink" viewBox="0 0 76 58.84"><defs><style>.cls-1{fill:url(#Degradado_sin_nombre_114);}.cls-2,.cls-3,.cls-4{fill:none;stroke-width:1.5px;}.cls-2,.cls-4{stroke:#3ac0f1;}.cls-2{stroke-miterlimit:10;}.cls-3{stroke:#1b75bb;}.cls-3,.cls-4{stroke-linecap:round;stroke-linejoin:round;}</style><linearGradient id="Degradado_sin_nombre_114" x1="27.12" y1="51.64" x2="27.12" y2="1.64" gradientUnits="userSpaceOnUse"><stop offset="0" stop-color="#fff"/><stop offset="0.62" stop-color="#a5f0ff"/><stop offset="1" stop-color="#7ce2f3"/></linearGradient></defs><circle class="cls-1" cx="27.12" cy="26.64" r="25"/><polyline class="cls-2" points="62 21.87 54.41 21.87 54.41 35.32 71.09 35.32"/><path class="cls-3" d="M69,51.69h3.19A1.67,1.67,0,0,0,73.88,50V44.1a1.67,1.67,0,0,0-1.67-1.67h-.4"/><path class="cls-4" d="M36.73,16.75V13.68a4.34,4.34,0,0,1,4.33-4.32h0a4.34,4.34,0,0,1,4.33,4.32v3.07"/><line class="cls-3" x1="30.68" y1="12.63" x2="33.52" y2="12.63"/><line class="cls-3" x1="41.06" y1="2.13" x2="41.06" y2="4.91"/><line class="cls-3" x1="48.04" y1="12.63" x2="51.01" y2="12.63"/><line class="cls-3" x1="45.94" y1="7.69" x2="48.01" y2="5.62"/><line class="cls-3" x1="36.18" y1="7.75" x2="34.11" y2="5.68"/><polygon class="cls-2" points="45.14 30.06 38.22 30.06 38.22 23.14 30 23.14 30 30.06 23.07 30.06 23.07 38.28 30 38.28 30 45.21 38.22 45.21 38.22 38.28 45.14 38.28 45.14 30.06"/><path class="cls-3" d="M12.6,51.69H9.71A1.67,1.67,0,0,1,8,50V44.38a1.67,1.67,0,0,1,1.67-1.67h.81V21a4.28,4.28,0,0,1,4.28-4.27H56.74s1.65-.28,3.7,2.79S71.69,36.11,71.69,36.11v6.32"/><circle class="cls-3" cx="19.18" cy="51.82" r="5.38"/><circle class="cls-3" cx="62.86" cy="51.82" r="5.38"/><line class="cls-3" x1="24.56" y1="51.82" x2="57.49" y2="51.82"/></svg>