<svg id="Capa_1" data-name="Capa 1" xmlns="http://www.w3.org/2000/svg" viewBox="0 0 38 39.85"><defs><style>.cls-1{fill:none;stroke:#fff;stroke-linecap:round;stroke-linejoin:round;stroke-width:2px;}.cls-2{fill:#fff;}.cls-3{fill:#9ad82e;}</style></defs><path class="cls-1" d="M32.92,6.27h1A1.69,1.69,0,0,1,35.61,8v27.7a1.69,1.69,0,0,1-1.69,1.69H4.08a1.69,1.69,0,0,1-1.69-1.69V8A1.69,1.69,0,0,1,4.08,6.27H5.76"/><line class="cls-1" x1="12.81" y1="6.27" x2="25.86" y2="6.27"/><rect class="cls-2" x="7.77" y="2.5" width="3.17" height="8.72" rx="1.59"/><rect class="cls-2" x="27.78" y="2.5" width="3.17" height="8.72" rx="1.59"/><path class="cls-3" d="M17.49,30.14a1.43,1.43,0,0,1-1-.38l-5.92-5.58a1.41,1.41,0,0,1,1.93-2.05l4.8,4.53,8.79-11.2a1.4,1.4,0,1,1,2.21,1.73L18.6,29.6a1.43,1.43,0,0,1-1,.54Z"/></svg>