<svg id="Capa_1" data-name="Capa 1" xmlns="http://www.w3.org/2000/svg" viewBox="0 0 39 39"><defs><style>.cls-1{fill:#fff;}</style></defs><path class="cls-1" d="M37,38.41H2a1.5,1.5,0,0,1-1.5-1.5V25.2a1.5,1.5,0,0,1,3,0V35.41h32V25.2a1.5,1.5,0,0,1,3,0V36.91A1.5,1.5,0,0,1,37,38.41Z"/><path class="cls-1" d="M19.5,28.28a1.5,1.5,0,0,1-1.5-1.5V2.09a1.5,1.5,0,0,1,3,0V26.78A1.5,1.5,0,0,1,19.5,28.28Z"/><path class="cls-1" d="M19.49,28.28a1.51,1.51,0,0,1-1.06-.44,1.49,1.49,0,0,1,0-2.12l11-11a1.5,1.5,0,1,1,2.12,2.12l-11,11A1.51,1.51,0,0,1,19.49,28.28Z"/><path class="cls-1" d="M19.5,28.28a1.51,1.51,0,0,1-1.06-.44l-11-11a1.5,1.5,0,0,1,2.12-2.12l11,11a1.49,1.49,0,0,1,0,2.12A1.51,1.51,0,0,1,19.5,28.28Z"/></svg>