<svg id="Capa_1" data-name="Capa 1" xmlns="http://www.w3.org/2000/svg" viewBox="0 0 56 56"><defs><style>.cls-1{fill:#fff;}.cls-2{fill:none;stroke:#fff;stroke-miterlimit:10;}</style></defs><path class="cls-1" d="M35.27,44.88H20.73a9.62,9.62,0,0,1-9.61-9.61V20.73a9.62,9.62,0,0,1,9.61-9.61H35.27a9.62,9.62,0,0,1,9.61,9.61V35.27A9.62,9.62,0,0,1,35.27,44.88ZM20.73,14A6.72,6.72,0,0,0,14,20.73V35.27A6.72,6.72,0,0,0,20.73,42H35.27A6.72,6.72,0,0,0,42,35.27V20.73A6.72,6.72,0,0,0,35.27,14Z"/><path class="cls-1" d="M28,36.64A8.64,8.64,0,1,1,36.64,28,8.64,8.64,0,0,1,28,36.64Zm0-14.39A5.75,5.75,0,1,0,33.75,28,5.76,5.76,0,0,0,28,22.25Z"/><path class="cls-1" d="M39.09,18.86A2.08,2.08,0,1,1,37,16.79,2.08,2.08,0,0,1,39.09,18.86Z"/><circle class="cls-2" cx="28" cy="28" r="27.5"/></svg>