<svg id="Capa_1" data-name="Capa 1" xmlns="http://www.w3.org/2000/svg" xmlns:xlink="http://www.w3.org/1999/xlink" viewBox="0 0 205 54.27"><defs><style>.cls-1{fill:#1b75bb;}.cls-2{fill:url(#radial-gradient);}.cls-3{fill:#fff;}.cls-4{fill:none;}.cls-5{fill:#8dbe43;}</style><radialGradient id="radial-gradient" cx="18.25" cy="25.61" r="22.24" gradientTransform="translate(9.03 1.54) scale(0.98)" gradientUnits="userSpaceOnUse"><stop offset="0" stop-color="#0091d4"/><stop offset="0.35" stop-color="#00a6e6"/><stop offset="0.64" stop-color="#f1f2f2"/><stop offset="1" stop-color="#0094d7"/></radialGradient></defs><path class="cls-1" d="M24.1,47.08C12.23,47.08,4.83,37.5,7.57,25.7,9.86,15.85,18.46,7.59,28.13,5.1,17.36,7.13,7.5,16.16,5,27,2.12,39.35,9.84,49.36,22.24,49.36c10.91,0,21.78-7.74,26.19-18C43.83,40.42,34,47.08,24.1,47.08Z"/><path class="cls-2" d="M24.61,46.1c-11.79,0-19.13-9.39-16.41-21C10.47,15.48,19,7.37,28.62,4.93c-10.7,2-20.5,10.85-23,21.49-2.84,12.1,4.84,21.91,17.15,21.91,10.83,0,21.63-7.58,26-17.63C44.21,39.57,34.43,46.1,24.61,46.1Z"/><polygon class="cls-3" points="21.4 44.87 21.72 51.24 24.04 51.24 27.35 44.87 21.4 44.87"/><path class="cls-4" d="M15,29.63a10.14,10.14,0,0,0,1.45,5l.27-.32a10,10,0,0,1-1.35-4.55Z"/><path class="cls-4" d="M19.61,30.84l-3.9-1A9.65,9.65,0,0,0,17,34Z"/><path class="cls-4" d="M28.73,39.71,27.17,42.9a22.25,22.25,0,0,0,10.39-4.38L35.2,36.91A18.51,18.51,0,0,1,28.73,39.71Z"/><path class="cls-4" d="M29.87,33.25a8.84,8.84,0,0,1-2.72.51l-4,17L31.24,34.2Z"/><path class="cls-4" d="M29.1,39a17.37,17.37,0,0,0,5.55-2.43l-.28-.2a17,17,0,0,1-5.08,2.24Z"/><path class="cls-4" d="M29.47,38.19a16.71,16.71,0,0,0,4.62-2l-2.71-1.86Z"/><path class="cls-4" d="M33.1,31.41l-.14.13L38.1,38.1l.1-.08-2.7-7.16Z"/><path class="cls-4" d="M40.93,29.6l-.42.1A18,18,0,0,1,37,34.29l.12.32A18,18,0,0,0,40.93,29.6Z"/><path class="cls-4" d="M36.87,34A16.62,16.62,0,0,0,40.1,29.8l-4.41,1Z"/><path class="cls-4" d="M18,36.54A10.21,10.21,0,0,0,22.41,39v-.39a9.83,9.83,0,0,1-4-2.23Z"/><path class="cls-4" d="M17.28,36.91l-3.12,1.62a13.17,13.17,0,0,0,8.32,4.37l-.06-3.19A10.76,10.76,0,0,1,17.28,36.91Z"/><path class="cls-4" d="M22.27,31.81a.12.12,0,0,0-.05,0L14,38.33l.07.08,8.26-4.28Z"/><path class="cls-4" d="M18.75,36.15a9.63,9.63,0,0,0,3.64,2l-.07-3.89Z"/><path class="cls-4" d="M23.8,21.47c.15-.15.31-.28.47-.42l-5.14-6.57,0,0,2.78,7.42Z"/><path class="cls-4" d="M28.91,12.61l1.55-3.18A22.37,22.37,0,0,0,19.59,14.1l2.35,1.6A18.54,18.54,0,0,1,28.91,12.61Z"/><path class="cls-4" d="M28.55,13.35a17.56,17.56,0,0,0-6.07,2.72l.27.19a17.27,17.27,0,0,1,5.61-2.52Z"/><path class="cls-4" d="M40.48,15.69l3.1-1.6a13.09,13.09,0,0,0-8.66-4.66L35,12.61A10.66,10.66,0,0,1,40.48,15.69Z"/><path class="cls-4" d="M28.75,13.31l-.19.38-2.4,4.91,1,.67a9.38,9.38,0,0,1,3.21-.69L34.25,2,29.11,12.56Z"/><path class="cls-4" d="M20.43,18.58A16.67,16.67,0,0,0,17.19,23L21.7,22Z"/><path class="cls-4" d="M21,29.23a6.65,6.65,0,0,1,0-2.67H3.89l15.85,4.12Z"/><path class="cls-4" d="M16.36,23.19l.42-.09a17.36,17.36,0,0,1,3.53-4.83l-.12-.33A17.73,17.73,0,0,0,16.36,23.19Z"/><path class="cls-4" d="M20,17.31l-1-2.68a22.46,22.46,0,0,0-6.77,9.53l3.39-.77A18.58,18.58,0,0,1,20,17.31Z"/><path class="cls-4" d="M28.17,14.11A16.7,16.7,0,0,0,23,16.45l3,2.05Z"/><path class="cls-4" d="M42.55,23.18a10.46,10.46,0,0,0-1.35-5.25l-.28.33a10.18,10.18,0,0,1,1.26,4.82Z"/><path class="cls-4" d="M37.8,21.94l4,1a9.9,9.9,0,0,0-1.17-4.42Z"/><polygon class="cls-4" points="39.84 17.31 39.84 17.31 39.38 17.67 39.84 17.31"/><path class="cls-4" d="M43.27,23.37l3,.78A13.49,13.49,0,0,0,44,14.62L41.72,17.3A11,11,0,0,1,43.27,23.37Z"/><path class="cls-4" d="M39.78,16.06A10.24,10.24,0,0,0,35,13.35v.39a9.9,9.9,0,0,1,4.41,2.51Z"/><path class="cls-4" d="M39.05,16.43a9.76,9.76,0,0,0-4-2.32l.08,4.37Z"/><rect class="cls-4" x="39.49" y="16.27" width="0.41" transform="translate(-3.06 19.84) rotate(-27.06)"/><path class="cls-4" d="M14.26,29.44l-3.08-.8a13.33,13.33,0,0,0,2.47,9.25l2.26-2.68A10.77,10.77,0,0,1,14.26,29.44Z"/><path class="cls-4" d="M37.34,35.22l1,2.68a22.8,22.8,0,0,0,6.84-9.28l-3.45.79A19,19,0,0,1,37.34,35.22Z"/><path class="cls-4" d="M47.35,24.61l-1.08-.28-3-.78-1-.27h-.05l-2-.52-2.52-.66L36.6,23.36a7.28,7.28,0,0,1-.11,2.81s0,0,0,0H53.52l-6.17-1.61Z"/><path class="cls-4" d="M27.31,33.08a7.58,7.58,0,0,0,1.89-.28l-1-.67a7.93,7.93,0,0,0,6.38-5.74,1,1,0,0,0,0-.17h1.15a.09.09,0,0,1,0,0A6.39,6.39,0,0,0,36,24.11l-1.22,1.45a4.44,4.44,0,0,0-4.68-5H29.9l.31-1.32a8.08,8.08,0,0,0-2.42.45l1.37.94a7.9,7.9,0,0,0-6.38,5.74l0,.17h-1.1a6.33,6.33,0,0,0-.06,1.93l1.06-1.24a4.43,4.43,0,0,0,4.68,5h.18Zm.19-1.58a4,4,0,0,1-4-5.11,6.91,6.91,0,0,1,6.4-5.1,4,4,0,0,1,4,5.1A6.92,6.92,0,0,1,27.5,31.5Z"/><path class="cls-4" d="M29.74,22a6,6,0,0,0-5.55,4.43,3.43,3.43,0,0,0,3.46,4.43,6,6,0,0,0,5.55-4.43A3.43,3.43,0,0,0,29.74,22Zm-1.82,7.71a2.53,2.53,0,0,1-2.56-3.28,4.43,4.43,0,0,1,4.11-3.28A2.53,2.53,0,0,1,32,26.39,4.43,4.43,0,0,1,27.92,29.67Z"/><polygon class="cls-4" points="26.91 24.43 26.51 26.13 27.58 25.28 26.91 24.43"/><polygon class="cls-4" points="31.21 24.2 29.5 24.2 30.16 25.04 31.21 24.2"/><polygon class="cls-4" points="26.2 28.59 27.89 28.59 27.24 27.76 26.2 28.59"/><polygon class="cls-4" points="29.25 24.2 29.22 24.2 29.16 24.2 27.81 25.27 27.82 25.28 26.46 26.37 26.45 26.39 26.47 26.39 26.46 26.45 27.3 27.52 28.13 28.59 28.19 28.59 28.21 28.59 29.58 27.49 29.59 27.51 30.91 26.45 30.92 26.37 30.95 26.37 30.95 26.37 30.1 25.28 29.25 24.2"/><polygon class="cls-4" points="30.46 28.34 30.85 26.7 29.82 27.52 30.46 28.34"/><path class="cls-5" d="M29.47,23.11a4.43,4.43,0,0,0-4.11,3.28,2.53,2.53,0,0,0,2.56,3.28A4.43,4.43,0,0,0,32,26.39,2.53,2.53,0,0,0,29.47,23.11Zm1.74,1.09L30.15,25l-.65-.84Zm-4.3.23.67.85-1.07.85Zm-.71,4.15,1-.82.65.82Zm4.26-.24-.64-.83,1-.81Zm-.87-.83v0l-1.37,1.09h-.08l-.83-1.07-.84-1.06v-.06h0v0l1.36-1.09h0l1.35-1.07h.09l.85,1.08L31,26.37h0v.08"/><path class="cls-1" d="M54.84,26.38h0l-7.83-2A14,14,0,0,0,44.5,14l.61-.73-.83.43a13.7,13.7,0,0,0-9.37-5L34.75.66,30.81,8.72a23.15,23.15,0,0,0-11.74,5l-.61-.41,0,0,0,0,0,0,0,.06.26.68a23.4,23.4,0,0,0-7.3,10.31L2.59,26.39h0l7.89,2.06a13.93,13.93,0,0,0,2.63,10l-.85,1,1.18-.61a13.74,13.74,0,0,0,9,4.72l.16,8.51,4.16-8.51a23.2,23.2,0,0,0,11.27-4.72l.82.56.05.06,0,0h0l0,0-.35-1A23.53,23.53,0,0,0,46,28.44l8.83-2.05h.06Zm-8.55-2.23-3-.78a11,11,0,0,0-1.55-6.07L44,14.62A13.49,13.49,0,0,1,46.29,24.15Zm-5.37-5.89.28-.33a10.46,10.46,0,0,1,1.35,5.25l-.37-.1A10.18,10.18,0,0,0,40.92,18.26Zm.9,4.73-4-1,2.85-3.37A9.9,9.9,0,0,1,41.82,23Zm1.86-8.78h0l-8.22,6.57c-.11-.14-.23-.26-.35-.39l0-1.74Zm-4.63,2.22-4,2.05L35,14.11A9.76,9.76,0,0,1,39.05,16.43Zm-4-2.69v-.39a10.24,10.24,0,0,1,4.79,2.71l-.37.19A9.9,9.9,0,0,0,35,13.74Zm8.58.35-3.1,1.6A10.66,10.66,0,0,0,35,12.61l-.06-3.18A13.09,13.09,0,0,1,43.58,14.09ZM34.25,2,30.37,18.58a9.38,9.38,0,0,0-3.21.69l-1-.67,2.4-4.91.19-.38.36-.75ZM28.17,14.11,26,18.5l-3-2.05A16.7,16.7,0,0,1,28.17,14.11Zm-5.42,2.15-.27-.19a17.56,17.56,0,0,1,6.07-2.72l-.19.39A17.27,17.27,0,0,0,22.75,16.26Zm7.71-6.83-1.55,3.18a18.54,18.54,0,0,0-7,3.09l-2.35-1.6A22.37,22.37,0,0,1,30.46,9.43ZM19.13,14.48l5.14,6.57c-.16.14-.32.27-.47.42l-1.92.45L19.1,14.5Zm1.3,4.1L21.7,22,17.19,23A16.67,16.67,0,0,1,20.43,18.58ZM16.78,23.1l-.42.09a17.73,17.73,0,0,1,3.83-5.25l.12.33A17.36,17.36,0,0,0,16.78,23.1Zm2.16-8.47,1,2.68a18.58,18.58,0,0,0-4.39,6.08l-3.39.77A22.46,22.46,0,0,1,18.94,14.63Zm-15,11.93H21a6.65,6.65,0,0,0,0,2.67l-1.23,1.45Zm11.82,3.26,3.9,1L17,34A9.65,9.65,0,0,1,15.71,29.82Zm1,4.46-.27.32a10.14,10.14,0,0,1-1.45-5l.37.1A10,10,0,0,0,16.7,34.28Zm-3,3.61a13.33,13.33,0,0,1-2.47-9.25l3.08.8a10.77,10.77,0,0,0,1.65,5.77Zm.34.44,8.23-6.57a.12.12,0,0,1,.05,0l.05,2.32-8.26,4.28Zm4.76-2.18,3.57-1.85.07,3.89A9.63,9.63,0,0,1,18.75,36.15Zm3.65,2.42V39A10.21,10.21,0,0,1,18,36.54l.38-.2A9.83,9.83,0,0,0,22.4,38.57Zm-8.24,0,3.12-1.62a10.76,10.76,0,0,0,5.14,2.8l.06,3.19A13.17,13.17,0,0,1,14.16,38.53ZM27.33,32.2a4.43,4.43,0,0,1-4.68-5l-1.06,1.24a6.33,6.33,0,0,1,.06-1.93h1.1l0-.17a7.9,7.9,0,0,1,6.38-5.74l-1.37-.94a8.08,8.08,0,0,1,2.42-.45l-.31,1.32h.16a4.44,4.44,0,0,1,4.68,5L36,24.11a6.39,6.39,0,0,1-.16,2.06.09.09,0,0,0,0,0H34.64a1,1,0,0,1,0,.17,7.93,7.93,0,0,1-6.38,5.74l1,.67a7.58,7.58,0,0,1-1.89.28l.2-.88Zm2.14,6,1.91-3.9,2.71,1.86A16.71,16.71,0,0,1,29.47,38.19Zm4.9-1.86.28.2A17.37,17.37,0,0,1,29.1,39l.19-.39A17,17,0,0,0,34.37,36.33ZM23.16,50.74l4-17a8.84,8.84,0,0,0,2.72-.51l1.37,1Zm4-7.84,1.56-3.19a18.51,18.51,0,0,0,6.47-2.8l2.36,1.61A22.25,22.25,0,0,1,27.17,42.9ZM38.1,38.1,33,31.54l.14-.13,2.4-.55L38.2,38ZM36.87,34l-1.18-3.15,4.41-1A16.62,16.62,0,0,1,36.87,34Zm3.64-4.27.42-.1a18,18,0,0,1-3.81,5L37,34.29A18,18,0,0,0,40.51,29.7Zm-2.16,8.2-1-2.68a19,19,0,0,0,4.4-5.81l3.45-.79A22.8,22.8,0,0,1,38.35,37.9ZM36.47,26.22s0,0,0,0a7.28,7.28,0,0,0,.11-2.81l1.07-1.27,2.52.66,2,.52h.05l1,.27,3,.78,1.08.28h0l6.17,1.61Z"/><path class="cls-1" d="M33.89,26.39a4,4,0,0,0-4-5.1,6.91,6.91,0,0,0-6.4,5.1,4,4,0,0,0,4,5.11A6.92,6.92,0,0,0,33.89,26.39Zm-6.24,4.43a3.43,3.43,0,0,1-3.46-4.43A6,6,0,0,1,29.74,22a3.43,3.43,0,0,1,3.46,4.43A6,6,0,0,1,27.65,30.82Z"/><path class="cls-5" d="M35.58,53.61S172.5,25.8,201.27,44.89C201.27,44.89,171.45,27.53,35.58,53.61Z"/><path class="cls-1" d="M59.85,17.08l1.78,14.76,8.09-14.76h4L62.79,35.83h-4.4L55.45,17.08Z"/><path class="cls-1" d="M72.88,22.65h3.86l-2.8,13.18H70.08ZM74,17h4.11l-.71,3.36H73.24Z"/><path class="cls-1" d="M84.17,35.83a11,11,0,0,1,.25-1.8A5.46,5.46,0,0,1,80,36.14c-1.9,0-2.64-.55-3.06-1a3.49,3.49,0,0,1-.53-2.89,5.76,5.76,0,0,1,3.65-4.09,14.92,14.92,0,0,1,5.37-.73,5.35,5.35,0,0,0,.19-1.74,1.4,1.4,0,0,0-1.49-1.1,2.21,2.21,0,0,0-1.61.73A2.43,2.43,0,0,0,82,26.45H78.25a4.7,4.7,0,0,1,2.14-3.09,8,8,0,0,1,4.21-1.07c1.09,0,3.34.18,4.33,1.69a4.76,4.76,0,0,1,.22,3.23l-1.1,5.28a16.71,16.71,0,0,0-.39,3.34Zm-3.88-4.07a1.44,1.44,0,0,0,1.48,1.88,2.72,2.72,0,0,0,1.8-.76A5.81,5.81,0,0,0,85,29.63C82.56,29.42,80.63,30.2,80.29,31.76Z"/><path class="cls-1" d="M87.45,38.27c1.73.08,2.07-1.56,2.22-2.24l2.85-13.4h3.85L93.32,37c-.53,2.47-1.86,4-5.15,4a7.18,7.18,0,0,1-1.27-.1ZM93.58,17h4.11L97,20.39H92.86Z"/><path class="cls-1" d="M100.2,30.23c-.19.86-.75,3.51,1.93,3.51a2.78,2.78,0,0,0,2.68-1.82h3.51a5.52,5.52,0,0,1-1.86,2.86,7.61,7.61,0,0,1-4.93,1.54c-1.12,0-3.21-.21-4.28-1.64-.94-1.25-1.06-3-.61-5.13a9.26,9.26,0,0,1,4.06-6.22,7.76,7.76,0,0,1,3.93-1.09c1.87,0,4,.73,4.63,3.17a9.36,9.36,0,0,1-.24,4.82Zm5.41-2.42c.12-.6.57-2.94-1.67-2.94-1.69,0-2.7,1.4-3.1,2.94Z"/><path class="cls-1" d="M112.83,32c-.12.83.19,1.79,1.81,1.79A2.24,2.24,0,0,0,117,32.26c.13-.6-.09-1.07-1.51-1.48l-2.26-.66c-1-.31-3.12-1-2.55-3.64s3.21-4.11,6.62-4.11c2.71,0,4.63,1.25,4.18,3.88H118c.21-1.46-.94-1.57-1.54-1.57a2,2,0,0,0-2.1,1.31c-.19.88.43,1.06,1.51,1.38l2.23.65c2.25.65,3.11,1.87,2.73,3.67-.48,2.26-2.91,4.53-7,4.53-1.69,0-3.23-.37-4.16-1.62a3.22,3.22,0,0,1-.42-2.57Z"/><path class="cls-1" d="M134.71,23.15c.06-.65.39-3.31-2.34-3.31-3,0-4.91,3.13-5.74,7-.23,1.12-1.37,6.46,2.56,6.46a4.29,4.29,0,0,0,4.15-3.57h4.24A8.16,8.16,0,0,1,135,34.16,8.94,8.94,0,0,1,129,36.27c-6.49,0-7.58-4.79-6.59-9.45,1.27-6,5.44-9.92,10.73-9.92,4.11,0,6.47,2.5,5.67,6.25Z"/><path class="cls-1" d="M145.53,35.83a10,10,0,0,1,.25-1.8,5.46,5.46,0,0,1-4.38,2.11c-1.9,0-2.65-.55-3.06-1a3.46,3.46,0,0,1-.53-2.89,5.73,5.73,0,0,1,3.65-4.09,14.9,14.9,0,0,1,5.36-.73,4.84,4.84,0,0,0,.19-1.74,1.39,1.39,0,0,0-1.48-1.1,2.24,2.24,0,0,0-1.62.73,2.31,2.31,0,0,0-.53,1.17H139.6a4.76,4.76,0,0,1,2.15-3.09A8,8,0,0,1,146,22.29c1.09,0,3.34.18,4.32,1.69a4.77,4.77,0,0,1,.23,3.23l-1.1,5.28a16,16,0,0,0-.4,3.34Zm-3.88-4.07a1.44,1.44,0,0,0,1.48,1.88,2.74,2.74,0,0,0,1.8-.76,5.81,5.81,0,0,0,1.42-3.25C143.92,29.42,142,30.2,141.65,31.76Z"/><path class="cls-1" d="M157.48,22.68l-.29,1.87a5.45,5.45,0,0,1,4.46-2.13c3.41,0,4.93,2.55,4.07,6.56-.79,3.72-3.42,7-7.22,7-2.37,0-3.06-1.25-3.31-1.69l-1.39,6.56h-3.93l3.86-18.2Zm4.31,6.46c.33-1.57.51-4.25-1.76-4.25-1.25,0-3.22.94-4,4.48-.17.78-.85,4.11,2,4.11C159.87,33.48,161.23,31.74,161.79,29.14Z"/><path class="cls-1" d="M168.73,22.65h3.86l-2.8,13.18h-3.86ZM169.8,17h4.11l-.71,3.36h-4.12Z"/><path class="cls-1" d="M179.9,35.64a12.92,12.92,0,0,1-3.08.42c-3.88,0-3.36-2.45-3.13-3.54l1.53-7.21H172.7l.54-2.55h2.53l.54-2.58,4.13-1.41-.85,4h3.13l-.55,2.55h-3.12l-1.26,5.93c-.23,1.2-.39,2,1.33,2a10.52,10.52,0,0,0,1.32-.08Z"/><path class="cls-1" d="M189.1,35.83a11,11,0,0,1,.25-1.8A5.44,5.44,0,0,1,185,36.14c-1.9,0-2.64-.55-3.05-1a3.46,3.46,0,0,1-.54-2.89A5.78,5.78,0,0,1,185,28.12a14.87,14.87,0,0,1,5.36-.73,5.08,5.08,0,0,0,.19-1.74,1.39,1.39,0,0,0-1.49-1.1,2.22,2.22,0,0,0-1.61.73,2.43,2.43,0,0,0-.54,1.17h-3.77a4.74,4.74,0,0,1,2.14-3.09,8,8,0,0,1,4.21-1.07c1.1,0,3.35.18,4.33,1.69a4.7,4.7,0,0,1,.22,3.23L193,32.49a16,16,0,0,0-.4,3.34Zm-3.87-4.07a1.43,1.43,0,0,0,1.47,1.88,2.7,2.7,0,0,0,1.8-.76,5.68,5.68,0,0,0,1.42-3.25C187.5,29.42,185.56,30.2,185.23,31.76Z"/><path class="cls-1" d="M198.65,17h3.85l-4,18.83h-3.85Z"/></svg>