<svg id="Capa_1" data-name="Capa 1" xmlns="http://www.w3.org/2000/svg" viewBox="0 0 62.82 62.82"><defs><style>.cls-1{fill:#1b75ba;}.cls-2{fill:#fff;}.cls-3{fill:#3abff0;}.cls-4{fill:#99d72e;}</style></defs><rect class="cls-1" width="62.82" height="62.82" rx="15"/><path class="cls-2" d="M57.08,51.61H48.87a1,1,0,1,1,0-2h7.21V45.47A8.46,8.46,0,0,0,47.63,37H45.17a8.47,8.47,0,0,0-8.46,8.45v4.14h7.51a1,1,0,0,1,0,2H35.71a1,1,0,0,1-1-1V45.47A10.47,10.47,0,0,1,45.17,35h2.46A10.46,10.46,0,0,1,58.08,45.47v5.14A1,1,0,0,1,57.08,51.61Z"/><path class="cls-3" d="M26.65,51.61h-8.2a1,1,0,0,1-.9-.55,1,1,0,0,1-.9.55H5.28a1,1,0,0,1-1-1V45.47A10.47,10.47,0,0,1,14.74,35H17.2A10.46,10.46,0,0,1,27.65,45.47v5.14A1,1,0,0,1,26.65,51.61Zm-20.37-2H16.65a1,1,0,0,1,.9.55,1,1,0,0,1,.9-.55h7.2V45.47A8.46,8.46,0,0,0,17.2,37H14.74a8.47,8.47,0,0,0-8.46,8.45Z"/><path class="cls-4" d="M31.3,30.51a8,8,0,1,1,8-8A8,8,0,0,1,31.3,30.51Zm0-14a6,6,0,1,0,6,6A6,6,0,0,0,31.3,16.49Z"/><path class="cls-3" d="M15.4,33.4a6,6,0,1,1,6-6A6,6,0,0,1,15.4,33.4Zm0-10a4,4,0,1,0,4,4A4,4,0,0,0,15.4,23.43Z"/><path class="cls-2" d="M47.16,33.4a6,6,0,1,1,6-6A6,6,0,0,1,47.16,33.4Zm0-10a4,4,0,1,0,4,4A4,4,0,0,0,47.16,23.43Z"/><path class="cls-1" d="M28.46,50.61H17.6V44.06A12.06,12.06,0,0,1,29.66,32H32.8A12.07,12.07,0,0,1,44.87,44.06v6.55H34.39"/><path class="cls-4" d="M44.87,51.61H34.39a1,1,0,0,1,0-2h9.48V44.06A11.09,11.09,0,0,0,32.8,33H29.66A11.08,11.08,0,0,0,18.6,44.06v5.55h9.86a1,1,0,0,1,0,2H17.6a1,1,0,0,1-1-1V44.06A13.08,13.08,0,0,1,29.66,31H32.8A13.08,13.08,0,0,1,45.87,44.06v6.55A1,1,0,0,1,44.87,51.61Z"/></svg>