<svg id="Capa_1" data-name="Capa 1" xmlns="http://www.w3.org/2000/svg" viewBox="0 0 57 57.13"><defs><style>.cls-1{fill:none;stroke:#fff;stroke-linecap:round;stroke-linejoin:round;stroke-width:2px;}</style></defs><path class="cls-1" d="M11.2,6l6.59,6.85A3,3,0,0,1,17.86,17l-4.37,4.87s5,12.89,22.1,22.09l5-5a3,3,0,0,1,4.18.15l6.73,7a3,3,0,0,1,.08,4.1c-2.5,2.8-7.7,7.08-15.37,5.74-11.15-1.94-19.95-9.72-23.94-14.12S2.29,30.15,1.16,21.1a16.39,16.39,0,0,1,6-15.35A3,3,0,0,1,11.2,6Z"/><path class="cls-1" d="M29.45,10.51s15,5.07,16.73,17.19"/><path class="cls-1" d="M31,1S51.24,6.68,56,25.86"/></svg>