<svg id="Capa_1" data-name="Capa 1" xmlns="http://www.w3.org/2000/svg" viewBox="0 0 62.82 62.82"><defs><style>.cls-1{fill:#1b75ba;}.cls-2,.cls-3,.cls-4,.cls-5{fill:none;stroke-linecap:round;stroke-linejoin:round;}.cls-2,.cls-5{stroke:#fff;}.cls-2,.cls-3,.cls-4{stroke-width:2.5px;}.cls-3{stroke:#99d72e;}.cls-4{stroke:#3abff0;}.cls-5{stroke-width:2px;}</style></defs><rect class="cls-1" width="62.82" height="62.82" rx="15"/><path class="cls-2" d="M15.07,35.52a8.7,8.7,0,1,1,14.25-9.09"/><path class="cls-3" d="M13,38.62a47.28,47.28,0,0,1,5.73-7.5,25.7,25.7,0,0,1,5.91,7.78"/><path class="cls-3" d="M25.23,31.83s5-6.52,7.21-8.18c0,0,12.25,12.94,15.13,23.2"/><path class="cls-4" d="M5.19,44.47a31.37,31.37,0,0,1,21.62-.65C38.13,47.86,44,50.24,52.48,45"/><path class="cls-4" d="M11,48s9.08-2.6,17.8,1.51"/><path class="cls-5" d="M45.39,22.65a4.36,4.36,0,0,1,8.7,0"/><path class="cls-5" d="M51.28,26.18a3,3,0,0,1-2.4,1.24h-5A3,3,0,0,1,41,24.48h0a3,3,0,0,1,2.95-2.95h1"/><path class="cls-5" d="M53.9,21a3.28,3.28,0,0,1,1.62-.42,3.39,3.39,0,0,1,0,6.78"/><line class="cls-2" x1="21.09" y1="11.76" x2="21.09" y2="16.03"/><line class="cls-2" x1="3.91" y1="28.97" x2="7.83" y2="28.97"/><line class="cls-2" x1="6.12" y1="37.33" x2="9.54" y2="35.42"/><line class="cls-2" x1="6.41" y1="20.27" x2="9.8" y2="22.23"/><line class="cls-2" x1="12.75" y1="14.34" x2="14.7" y2="17.73"/></svg>