<svg id="Capa_1" data-name="Capa 1" xmlns="http://www.w3.org/2000/svg" viewBox="0 0 56 56"><defs><style>.cls-1{fill:none;stroke:#fff;stroke-miterlimit:10;}.cls-2{fill:#fff;}</style></defs><circle class="cls-1" cx="28" cy="28" r="27.5"/><path class="cls-2" d="M45.49,24.86A15.23,15.23,0,0,1,36.55,22V35A11.85,11.85,0,1,1,24.71,23.17a11,11,0,0,1,1.62.12v6.54a5.44,5.44,0,1,0,3.55,6.82A5.33,5.33,0,0,0,30.13,35V9.57h6.42a8.67,8.67,0,0,0,.13,1.61h0A8.9,8.9,0,0,0,40.61,17a8.81,8.81,0,0,0,4.88,1.46Z"/></svg>