<svg id="Capa_1" data-name="Capa 1" xmlns="http://www.w3.org/2000/svg" viewBox="0 0 62.82 62.82"><defs><style>.cls-1{fill:#1b75ba;}.cls-2{fill:#fff;}.cls-3{fill:#3abff0;}.cls-4{fill:#99d72e;}</style></defs><rect class="cls-1" width="62.82" height="62.82" rx="15"/><path class="cls-2" d="M55.68,16.47,45.19,12V50.52l12.49-29A3.83,3.83,0,0,0,55.68,16.47Z"/><path class="cls-3" d="M26.78,38.92A12.82,12.82,0,1,1,39.6,26.1,12.84,12.84,0,0,1,26.78,38.92Zm0-23.64A10.82,10.82,0,1,0,37.6,26.1,10.83,10.83,0,0,0,26.78,15.28Z"/><path class="cls-3" d="M26.78,38.92c-3.2,0-4.67-6.64-4.67-12.82s1.47-12.82,4.67-12.82,4.68,6.65,4.68,12.82S30,38.92,26.78,38.92Zm0-23.64c-.79,0-2.67,3.68-2.67,10.82S26,36.92,26.78,36.92s2.68-3.68,2.68-10.82S27.58,15.28,26.78,15.28Z"/><path class="cls-3" d="M26.78,30.77C20.61,30.77,14,29.31,14,26.1s6.65-4.67,12.82-4.67S39.6,22.89,39.6,26.1,33,30.77,26.78,30.77Zm0-7.34C19.65,23.43,16,25.3,16,26.1s3.69,2.67,10.82,2.67S37.6,26.9,37.6,26.1,33.92,23.43,26.78,23.43Z"/><path class="cls-2" d="M20,47.85l1.22-4.45h1.65l-2.06,6.12H19.22l-2-6.12h1.64Z"/><path class="cls-2" d="M24.91,49.52H23.43V43.4h1.48Z"/><path class="cls-2" d="M29.09,47.89a.63.63,0,0,0-.23-.51,2.83,2.83,0,0,0-.81-.37,8.81,8.81,0,0,1-.94-.37A1.79,1.79,0,0,1,25.92,45a1.44,1.44,0,0,1,.3-.9,2,2,0,0,1,.84-.6,3.16,3.16,0,0,1,1.22-.22,2.8,2.8,0,0,1,1.18.24,1.86,1.86,0,0,1,.81.67,1.69,1.69,0,0,1,.29,1H29.09a.72.72,0,0,0-.23-.58.92.92,0,0,0-.62-.2,1,1,0,0,0-.62.17.55.55,0,0,0-.23.44.54.54,0,0,0,.25.43,3.31,3.31,0,0,0,.89.4,5.54,5.54,0,0,1,1,.43,1.77,1.77,0,0,1,1,1.58,1.48,1.48,0,0,1-.6,1.26,2.68,2.68,0,0,1-1.66.46A3.25,3.25,0,0,1,27,49.33,2,2,0,0,1,26,48.6a1.91,1.91,0,0,1-.3-1.07h1.48a1,1,0,0,0,.25.73,1.25,1.25,0,0,0,.83.23,1,1,0,0,0,.58-.16A.51.51,0,0,0,29.09,47.89Z"/><path class="cls-2" d="M34.79,48.37h-2l-.35,1.15H30.84l2.25-6.12h1.38l2.27,6.12H35.15Zm-1.66-1.14h1.31l-.66-2.12Z"/><path class="cls-4" d="M38.12,57.05H15.79A8.26,8.26,0,0,1,7.54,48.8V15.37a8.26,8.26,0,0,1,8.25-8.25H38.12a8.26,8.26,0,0,1,8.25,8.25V48.8A8.26,8.26,0,0,1,38.12,57.05ZM15.79,9.62A5.76,5.76,0,0,0,10,15.37V48.8a5.76,5.76,0,0,0,5.75,5.75H38.12a5.76,5.76,0,0,0,5.75-5.75V15.37a5.76,5.76,0,0,0-5.75-5.75Z"/></svg>