<svg id="Capa_1" data-name="Capa 1" xmlns="http://www.w3.org/2000/svg" viewBox="0 0 40.54 40.66"><defs><style>.cls-1{fill:#fff;}.cls-2{fill:#3ac0f1;}.cls-3{fill:#9ad82e;}</style></defs><path class="cls-1" d="M38.07,8.05,29.88,4.53V34.62L39.63,12A3,3,0,0,0,38.07,8.05Z"/><path class="cls-2" d="M15.52,25.28a9.72,9.72,0,1,1,9.72-9.72A9.73,9.73,0,0,1,15.52,25.28Zm0-18.44a8.72,8.72,0,1,0,8.72,8.72A8.73,8.73,0,0,0,15.52,6.84Z"/><path class="cls-2" d="M15.52,25.28c-2.21,0-3.36-4.89-3.36-9.72s1.15-9.72,3.36-9.72,3.37,4.89,3.37,9.72S17.73,25.28,15.52,25.28Zm0-18.44c-1,0-2.36,3.4-2.36,8.72s1.4,8.72,2.36,8.72,2.37-3.4,2.37-8.72S16.49,6.84,15.52,6.84Z"/><path class="cls-2" d="M15.52,18.92c-4.83,0-9.72-1.15-9.72-3.36s4.89-3.36,9.72-3.36,9.72,1.15,9.72,3.36S20.35,18.92,15.52,18.92Zm0-5.72c-5.32,0-8.72,1.4-8.72,2.36s3.4,2.36,8.72,2.36,8.72-1.4,8.72-2.36S20.85,13.2,15.52,13.2Z"/><path class="cls-1" d="M10.25,32.53l.95-3.48h1.28l-1.6,4.78H9.62L8,29.05H9.3Z"/><path class="cls-1" d="M14.06,33.83H12.91V29.05h1.15Z"/><path class="cls-1" d="M17.32,32.56a.46.46,0,0,0-.18-.39,2,2,0,0,0-.63-.3,5,5,0,0,1-.73-.29,1.39,1.39,0,0,1-.93-1.25,1.15,1.15,0,0,1,.23-.7,1.5,1.5,0,0,1,.66-.47,2.55,2.55,0,0,1,1-.17,2.25,2.25,0,0,1,.92.18,1.43,1.43,0,0,1,.63.53,1.27,1.27,0,0,1,.23.77H17.32a.58.58,0,0,0-.18-.45.66.66,0,0,0-.48-.16.81.81,0,0,0-.49.13.42.42,0,0,0-.18.35.43.43,0,0,0,.2.33,2.54,2.54,0,0,0,.69.31,5.09,5.09,0,0,1,.82.34,1.38,1.38,0,0,1,.77,1.23,1.19,1.19,0,0,1-.47,1,2.18,2.18,0,0,1-1.3.35,2.77,2.77,0,0,1-1-.2,1.64,1.64,0,0,1-.71-.57,1.58,1.58,0,0,1-.23-.84h1.15a.74.74,0,0,0,.2.57.94.94,0,0,0,.64.18.75.75,0,0,0,.45-.12A.43.43,0,0,0,17.32,32.56Z"/><path class="cls-1" d="M21.77,32.94H20.2l-.28.89H18.69l1.75-4.78h1.08l1.77,4.78H22.05Zm-1.3-.89h1L21,30.39Z"/><path class="cls-3" d="M22.83,39.73H8.49a8,8,0,0,1-8-8v-23a8,8,0,0,1,8-8H22.83a8,8,0,0,1,8,8v23A8,8,0,0,1,22.83,39.73ZM8.49,2.73a6,6,0,0,0-6,6v23a6,6,0,0,0,6,6H22.83a6,6,0,0,0,6-6v-23a6,6,0,0,0-6-6Z"/></svg>