<svg id="Capa_1" data-name="Capa 1" xmlns="http://www.w3.org/2000/svg" viewBox="0 0 42 39"><defs><style>.cls-1{fill:#fff;}</style></defs><path class="cls-1" d="M33.81,38.57H8.19a7.62,7.62,0,0,1-6.63-3.86,8,8,0,0,1,0-8L14.34,4.23a7.63,7.63,0,0,1,13.32,0L40.47,26.68a8,8,0,0,1,0,8A7.6,7.6,0,0,1,33.81,38.57ZM21,2.33a5.61,5.61,0,0,0-4.91,2.9L3.28,27.68a6,6,0,0,0,0,6,5.62,5.62,0,0,0,4.89,2.85H33.81A5.62,5.62,0,0,0,38.7,33.7a6,6,0,0,0,0-6L25.91,5.23A5.61,5.61,0,0,0,21,2.33Z"/><path class="cls-1" d="M21,25.93a1.29,1.29,0,0,1-1.29-1.29v-11a1.3,1.3,0,1,1,2.59,0v11A1.3,1.3,0,0,1,21,25.93Z"/><circle class="cls-1" cx="21.11" cy="28.56" r="1.42"/></svg>