<svg id="Capa_1" data-name="Capa 1" xmlns="http://www.w3.org/2000/svg" viewBox="0 0 56 56"><defs><style>.cls-1{fill:#fff;}.cls-2{fill:none;stroke:#fff;stroke-miterlimit:10;}</style></defs><path class="cls-1" d="M47.12,18.86a5,5,0,0,0-3.53-3.55C40.48,14.47,28,14.47,28,14.47s-12.48,0-15.59.84a5,5,0,0,0-3.53,3.55c-.83,3.13-.83,9.67-.83,9.67s0,6.53.83,9.66a4.94,4.94,0,0,0,3.53,3.5c3.11.84,15.59.84,15.59.84s12.48,0,15.59-.84a4.94,4.94,0,0,0,3.53-3.5c.83-3.13.83-9.66.83-9.66S48,22,47.12,18.86Zm-23.2,15.6V22.6l10.43,5.93L23.92,34.46Z"/><circle class="cls-2" cx="28" cy="28" r="27.5"/></svg>